<svg width="60" height="60" viewBox="0 0 60 60" fill="none" xmlns="http://www.w3.org/2000/svg">
<path d="M55.4111 23.1164C56.162 22.3672 56.2015 21.1575 55.4545 20.4044C49.0823 13.98 40.2393 10 30.4646 10C20.5867 10 11.6604 14.0644 5.27383 20.6084C4.53711 21.3633 4.5811 22.5647 5.3278 23.3097L9.25269 27.2257C10.0844 28.0555 11.4446 27.9874 12.2711 27.1524C16.9068 22.4689 23.3459 19.5664 30.4646 19.5664C37.4935 19.5664 43.86 22.3962 48.482 26.9763C49.3105 27.7973 50.6589 27.8578 51.4846 27.0339L55.4111 23.1164Z" fill="#E32E0F"/>
<path d="M46.3908 32.1161C47.1234 31.3852 47.184 30.2088 46.4596 29.4698C42.3979 25.3267 36.7322 22.7552 30.4646 22.7552C24.0908 22.7552 18.3396 25.4145 14.2646 29.6816C13.5564 30.4232 13.6236 31.5866 14.3496 32.3109L18.2182 36.1707C19.1025 37.053 20.5679 36.9065 21.4552 36.0272C23.7663 33.7368 26.9498 32.3217 30.4646 32.3217C33.8989 32.3217 37.017 33.6728 39.3139 35.8714C40.2037 36.7231 41.6438 36.8523 42.5158 35.9823L46.3908 32.1161Z" fill="#E32E0F"/>
<path d="M37.4126 41.0739C38.0781 40.4099 38.2068 39.3554 37.5751 38.6592C35.8207 36.7253 33.2848 35.5105 30.4646 35.5105C27.5269 35.5105 24.8979 36.8285 23.1391 38.9042C22.5454 39.6049 22.6862 40.6286 23.3363 41.2772L28.86 46.7883C29.6406 47.5672 30.9045 47.5672 31.6852 46.7883L37.4126 41.0739Z" fill="#E32E0F"/>
<path d="M46.3908 32.1162C47.1234 31.3853 47.184 30.2089 46.4595 29.4699C42.3978 25.3267 36.7322 22.7553 30.4645 22.7553C24.0908 22.7553 18.3396 25.4145 14.2646 29.6816C13.5563 30.4233 13.6235 31.5867 14.3495 32.311L18.2181 36.1708C19.1024 37.0531 20.5679 36.9066 21.4552 36.0273C23.7662 33.7369 26.9497 32.3217 30.4645 32.3217C33.8989 32.3217 37.0169 33.6729 39.3139 35.8714C40.2037 36.7232 41.6438 36.8523 42.5157 35.9824L46.3908 32.1162Z" fill="#F7C0B7"/>
</svg>
